<svg width="504" height="80" viewBox="0 0 504 80" fill="none" xmlns="http://www.w3.org/2000/svg">
<path d="M0.0114886 4.29566H32.8503C46.8633 4.29566 57.6373 14.9662 57.6373 29.0941C57.6373 43.222 46.8633 53.8926 32.8503 53.8926H14.438V78.691H0V4.28418L0.0114886 4.29566ZM14.4495 18.3202V39.891H32.5401C38.398 39.891 42.7857 35.2507 42.7857 29.1056C42.7857 22.9606 38.3866 18.3202 32.5401 18.3202H14.4495Z" fill="#FF385C"/>
<path d="M170.006 51.2048C170.006 34.8141 182.342 22.4092 198.664 22.4092C214.985 22.4092 227.322 34.8141 227.322 51.3082C227.322 52.7095 227.218 54.754 226.908 56.0519H184.547C186.328 63.1733 191.761 67.8022 199.089 67.8022C204.636 67.8022 209.449 65.2178 211.746 61.6571H226.495C222.417 72.5459 211.85 79.9889 198.882 79.9889C182.353 79.9889 170.017 67.5839 170.017 51.1933L170.006 51.2048ZM184.651 45.8178H212.688C211.011 39.1329 205.578 34.5959 198.675 34.5959C191.772 34.5959 186.546 39.018 184.662 45.8178H184.651Z" fill="#FF385C"/>
<path d="M291.492 51.2048C291.492 34.8141 303.828 22.4092 320.15 22.4092C336.472 22.4092 348.808 34.8141 348.808 51.3082C348.808 52.7095 348.704 54.754 348.394 56.0519H306.034C307.814 63.1733 313.247 67.8022 320.575 67.8022C326.123 67.8022 330.935 65.2178 333.233 61.6571H347.981C343.903 72.5459 333.336 79.9889 320.368 79.9889C303.84 79.9889 291.504 67.5839 291.504 51.1933L291.492 51.2048ZM306.137 45.8178H334.175C332.498 39.1329 327.065 34.5959 320.161 34.5959C313.258 34.5959 308.032 39.018 306.148 45.8178H306.137Z" fill="#FF385C"/>
<path d="M361.812 4.2959H380.535L401.658 55.6272L422.895 4.2959H441.411V78.7027H426.973V29.6342L406.574 78.7027H396.638L376.239 29.6342V78.7027H361.801V4.2959H361.812Z" fill="#FF718E"/>
<path d="M446.648 51.2048C446.648 34.8141 458.985 22.4092 475.306 22.4092C491.628 22.4092 503.964 34.8141 503.964 51.3082C503.964 52.7095 503.861 54.754 503.551 56.0519H461.19C462.97 63.1733 468.403 67.8022 475.731 67.8022C481.279 67.8022 486.092 65.2178 488.389 61.6571H503.137C499.06 72.5459 488.492 79.9889 475.525 79.9889C458.996 79.9889 446.66 67.5839 446.66 51.1933L446.648 51.2048ZM461.293 45.8178H489.331C487.654 39.1329 482.221 34.5959 475.318 34.5959C468.415 34.5959 463.188 39.018 461.305 45.8178H461.293Z" fill="#FF718E"/>
<path d="M234.201 61.3469V32.8385H225.725V20.0085H230.537C233.363 20.0085 234.925 18.5038 234.925 15.5864V9.05078H247.789V20.0085H260.137V32.8385H247.789V58.9808C247.789 63.2881 250.408 65.8839 254.796 65.8839C254.796 65.8839 258.058 65.792 260.137 64.8387V77.6687C257.564 78.5646 252.809 78.7139 252.809 78.7139C240.576 78.7139 234.19 72.6722 234.19 61.3469H234.201Z" fill="#FF385C"/>
<path d="M265.434 61.3469V32.8385H256.957V20.0085H261.77C264.595 20.0085 266.157 18.5038 266.157 15.5864V9.05078H279.022V20.0085H291.369V32.8385H279.022V58.9808C279.022 63.2881 281.641 65.8839 286.028 65.8839C286.028 65.8839 289.29 65.792 291.369 64.8387V77.6687C288.797 78.5646 284.041 78.7139 284.041 78.7139C271.809 78.7139 265.422 72.6722 265.422 61.3469H265.434Z" fill="#FF385C"/>
<path d="M173.681 57.9579C173.819 57.3491 173.865 56.7978 173.865 56.7978C174.141 56.4417 182.434 67.9852 182.434 67.9852C182.25 68.3413 181.572 69.3406 181.239 69.8C180.493 70.8108 179.769 71.6493 178.999 72.4303C184.088 77.1626 191.002 79.9997 198.882 79.9997C211.85 79.9997 222.417 72.5567 226.495 61.6679H211.746C209.449 65.2286 204.636 67.8129 199.089 67.8129C191.772 67.8129 186.328 63.1725 184.547 56.0627H226.908C227.218 54.7647 227.322 52.7202 227.322 51.3189C227.322 34.8249 214.985 22.4199 198.664 22.4199C182.342 22.4199 170.006 34.8249 170.006 51.2155C170.006 55.0289 170.695 58.6241 171.936 61.8976C172.234 61.4381 172.487 61.0017 172.671 60.6456C173.256 59.4511 173.578 58.4747 173.693 57.9579H173.681ZM198.652 34.5952C205.555 34.5952 211 39.1207 212.665 45.8171H184.628C186.511 39.0173 191.738 34.5952 198.641 34.5952H198.652Z" fill="#FF385C"/>
<path d="M168.282 65.597C167.604 66.045 166.605 66.6193 165.387 66.9754C164.721 67.1706 164.067 67.2855 163.952 67.3085C163.492 67.3889 162.665 67.5037 161.654 67.4807C159.277 67.4348 157.473 66.6767 157.026 66.4815C157.026 66.4815 155.82 65.9416 154.717 65.1261C154.188 64.7356 153.706 64.2417 153.534 64.0349C153.476 63.966 153.051 63.5066 152.971 63.3802L152.914 63.4262L152.971 63.3687C153.086 63.2079 153.293 62.8863 153.557 62.5302C153.947 61.9789 154.326 61.4391 154.694 60.8648C159.954 52.5833 164.618 41.7979 164.618 29.7145C164.618 10.5213 156.141 0 143.667 0C131.193 0 122.717 10.5098 122.717 29.7145C122.717 42.2114 127.713 53.3299 133.192 61.7147C133.215 61.7492 134.203 63.1046 134.444 63.4491L134.605 63.6559C134.432 63.8397 134.329 63.9545 134.249 64.0464C134.065 64.2417 133.536 64.7241 133.02 65.1146C131.917 65.9416 130.711 66.47 130.711 66.47C130.263 66.6652 128.471 67.4348 126.082 67.4693C125.071 67.4922 124.244 67.3774 123.785 67.297C123.67 67.274 123.015 67.1706 122.349 66.9639C120.844 66.5159 119.65 65.7349 119.007 65.2754C118.938 65.218 118.8 65.1261 118.639 64.9998C117.605 64.1957 116.767 63.1735 116.101 62.0478C115.411 60.8877 114.975 59.6243 114.642 58.3034C114.056 55.9947 113.976 53.64 113.861 51.2624C113.861 49.505 113.861 25.4532 113.861 23.6728H100.261V30.1395C95.9769 25.2809 90.0156 22.3749 82.8942 22.3749C68.0427 22.3749 56.8438 34.7799 56.8438 51.1705C56.8438 67.5612 68.0312 79.9661 82.8942 79.9661C96.0343 79.7134 102.834 71.5468 105.039 67.9747C105.223 68.3996 105.924 69.4564 106.257 69.9158C108.393 72.8333 111.139 75.1764 114.355 76.8534C117.8 78.6567 121.821 79.5641 125.703 79.633C125.864 79.633 126.025 79.633 126.185 79.633C129.424 79.5986 132.353 78.9783 135.811 77.4851C136.787 77.0601 137.671 76.5663 138.498 76.0724C140.486 74.8893 142.22 73.3157 143.874 71.5353C145.528 73.3042 147.262 74.8893 149.249 76.0724C150.076 76.5663 150.961 77.0601 151.937 77.4851C155.395 78.9783 158.323 79.5986 161.563 79.633C164.779 79.633 169.201 78.8635 173.301 76.7156C173.83 76.4399 174.415 76.0953 174.909 75.7622L168.282 65.5511V65.597ZM85.5131 66.4125C77.1397 66.4125 70.8683 59.831 70.8683 51.205C70.8683 42.5789 77.1397 35.9974 85.5131 35.9974C93.8864 35.9974 100.261 42.5789 100.261 51.205C100.261 59.831 93.9898 66.4125 85.5131 66.4125ZM143.679 55.1332C140.221 51.0442 136.753 37.8926 136.753 29.726C136.753 19.2622 138.855 13.4387 143.679 13.4387C148.503 13.4387 150.605 19.2622 150.605 29.726C150.605 37.8926 147.102 51.1016 143.679 55.1332Z" fill="#FF385C"/>
</svg>
