<svg width="143" height="24" viewBox="0 0 143 24" fill="none" xmlns="http://www.w3.org/2000/svg">
<path d="M16.1064 23.6201H15.7266V24H16.1064V23.6201Z" fill="#FF385C"/>
<path d="M0.00324745 1.21418H9.28573C13.2468 1.21418 16.2922 4.23041 16.2922 8.22392C16.2922 12.2174 13.2468 15.2337 9.28573 15.2337H4.08118V22.2434H0V1.21094L0.00324745 1.21418ZM4.08442 5.17847V11.2759H9.19807C10.8539 11.2759 12.0942 9.96418 12.0942 8.22717C12.0942 6.49016 10.8507 5.17847 9.19807 5.17847H4.08442Z" fill="#FF385C"/>
<path d="M48.0547 14.4736C48.0547 9.84048 51.5417 6.33398 56.1553 6.33398C60.769 6.33398 64.256 9.84047 64.256 14.5028C64.256 14.8989 64.2268 15.4768 64.1391 15.8437H52.1651C52.6683 17.8567 54.204 19.1651 56.2755 19.1651C57.8437 19.1651 59.2041 18.4346 59.8534 17.4281H64.0222C62.8696 20.5061 59.8826 22.61 56.217 22.61C51.5449 22.61 48.0579 19.1035 48.0579 14.4703L48.0547 14.4736ZM52.1943 12.9509H60.1196C59.6456 11.0613 58.1099 9.77879 56.1586 9.77879C54.2073 9.77879 52.73 11.0288 52.1975 12.9509H52.1943Z" fill="#FF385C"/>
<path d="M82.3984 14.4736C82.3984 9.84048 85.8855 6.33398 90.4991 6.33398C95.1127 6.33398 98.5998 9.84047 98.5998 14.5028C98.5998 14.8989 98.5705 15.4768 98.4829 15.8437H86.5088C87.0121 17.8567 88.5478 19.1651 90.6192 19.1651C92.1874 19.1651 93.5478 18.4346 94.1972 17.4281H98.366C97.2134 20.5061 94.2264 22.61 90.5608 22.61C85.8887 22.61 82.4017 19.1035 82.4017 14.4703L82.3984 14.4736ZM86.5381 12.9509H94.4634C93.9894 11.0613 92.4536 9.77879 90.5023 9.77879C88.551 9.77879 87.0738 11.0288 86.5413 12.9509H86.5381Z" fill="#FF385C"/>
<path d="M102.273 1.21436H107.565L113.536 15.7241L119.539 1.21436H124.773V22.2468H120.692V8.37669L114.925 22.2468H112.117L106.351 8.37669V22.2468H102.27V1.21436H102.273Z" fill="#FF718E"/>
<path d="M126.254 14.4736C126.254 9.84048 129.741 6.33398 134.355 6.33398C138.968 6.33398 142.455 9.84047 142.455 14.5028C142.455 14.8989 142.426 15.4768 142.338 15.8437H130.364C130.868 17.8567 132.403 19.1651 134.475 19.1651C136.043 19.1651 137.403 18.4346 138.053 17.4281H142.221C141.069 20.5061 138.082 22.61 134.416 22.61C129.744 22.61 126.257 19.1035 126.257 14.4703L126.254 14.4736ZM130.394 12.9509H138.319C137.845 11.0613 136.309 9.77879 134.358 9.77879C132.406 9.77879 130.929 11.0288 130.397 12.9509H130.394Z" fill="#FF718E"/>
<path d="M66.2008 17.3411V9.28262H63.8047V5.65599H65.1651C65.9638 5.65599 66.4053 5.23067 66.4053 4.406V2.55859H70.0417V5.65599H73.532V9.28262H70.0417V16.6722C70.0417 17.8898 70.782 18.6235 72.0222 18.6235C72.0222 18.6235 72.9443 18.5976 73.532 18.3281V21.9547C72.8047 22.2079 71.4605 22.2502 71.4605 22.2502C68.0028 22.2502 66.1976 20.5424 66.1976 17.3411H66.2008Z" fill="#FF385C"/>
<path d="M75.0289 17.3411V9.28262H72.6328V5.65599H73.9932C74.7919 5.65599 75.2335 5.23067 75.2335 4.406V2.55859H78.8698V5.65599H82.3601V9.28262H78.8698V16.6722C78.8698 17.8898 79.6101 18.6235 80.8504 18.6235C80.8504 18.6235 81.7724 18.5976 82.3601 18.3281V21.9547C81.6328 22.2079 80.2887 22.2502 80.2887 22.2502C76.8309 22.2502 75.0257 20.5424 75.0257 17.3411H75.0289Z" fill="#FF385C"/>
<path d="M49.0936 16.3833C49.1326 16.2113 49.1456 16.0554 49.1456 16.0554C49.2235 15.9548 51.5677 19.2178 51.5677 19.2178C51.5157 19.3184 51.3242 19.6009 51.23 19.7307C51.019 20.0165 50.8144 20.2535 50.5969 20.4743C52.0352 21.8119 53.9898 22.6139 56.217 22.6139C59.8826 22.6139 62.8696 20.51 64.0222 17.432H59.8534C59.2041 18.4385 57.8437 19.1691 56.2755 19.1691C54.2073 19.1691 52.6683 17.8574 52.1651 15.8476H64.1391C64.2268 15.4807 64.256 14.9028 64.256 14.5067C64.256 9.84439 60.769 6.33789 56.1553 6.33789C51.5417 6.33789 48.0547 9.84439 48.0547 14.4775C48.0547 15.5554 48.2495 16.5717 48.6001 17.497C48.6846 17.3671 48.756 17.2437 48.8079 17.1431C48.9735 16.8054 49.0644 16.5294 49.0969 16.3833H49.0936ZM56.1521 9.77945C58.1034 9.77945 59.6424 11.0587 60.1131 12.9515H52.1878C52.7203 11.0294 54.1976 9.77945 56.1489 9.77945H56.1521Z" fill="#FF385C"/>
<path d="M47.5704 18.5422C47.3788 18.6688 47.0963 18.8312 46.7522 18.9318C46.5639 18.987 46.3788 19.0195 46.3463 19.026C46.2165 19.0487 45.9827 19.0812 45.697 19.0747C45.0249 19.0617 44.5152 18.8474 44.3885 18.7922C44.3885 18.7922 44.0476 18.6396 43.7359 18.4091C43.5866 18.2987 43.4502 18.1591 43.4015 18.1007C43.3853 18.0812 43.2652 17.9513 43.2424 17.9156L43.2262 17.9286L43.2424 17.9123C43.2749 17.8669 43.3333 17.776 43.408 17.6753C43.5184 17.5195 43.6255 17.3669 43.7294 17.2045C45.2165 14.8636 46.5346 11.8149 46.5346 8.39935C46.5346 2.97403 44.1385 0 40.6126 0C37.0866 0 34.6905 2.97078 34.6905 8.39935C34.6905 11.9318 36.1028 15.0747 37.6515 17.4448C37.658 17.4546 37.9372 17.8377 38.0054 17.9351L38.0509 17.9935C38.0022 18.0455 37.9729 18.0779 37.9502 18.1039C37.8983 18.1591 37.7489 18.2955 37.6028 18.4058C37.2911 18.6396 36.9502 18.789 36.9502 18.789C36.8236 18.8442 36.3171 19.0617 35.6418 19.0714C35.3561 19.0779 35.1223 19.0455 34.9924 19.0227C34.96 19.0162 34.7749 18.987 34.5866 18.9286C34.1612 18.802 33.8236 18.5812 33.6418 18.4513C33.6223 18.4351 33.5833 18.4091 33.5379 18.3734C33.2457 18.1461 33.0086 17.8571 32.8203 17.539C32.6255 17.211 32.5022 16.8539 32.408 16.4805C32.2424 15.8279 32.2197 15.1623 32.1872 14.4903C32.1872 13.9935 32.1872 7.19481 32.1872 6.69156H28.3431V8.51948C27.132 7.14611 25.4469 6.32468 23.434 6.32468C19.2359 6.32468 16.0703 9.83117 16.0703 14.4643C16.0703 19.0974 19.2327 22.6039 23.434 22.6039C27.1482 22.5325 29.0703 20.224 29.6937 19.2143C29.7457 19.3344 29.9437 19.6331 30.0379 19.763C30.6418 20.5877 31.4177 21.25 32.3268 21.724C33.3009 22.2338 34.4372 22.4903 35.5346 22.5097C35.5801 22.5097 35.6255 22.5097 35.671 22.5097C36.5866 22.5 37.4145 22.3247 38.3918 21.9026C38.6677 21.7825 38.9177 21.6429 39.1515 21.5033C39.7132 21.1688 40.2035 20.724 40.671 20.2208C41.1385 20.7208 41.6288 21.1688 42.1905 21.5033C42.4242 21.6429 42.6742 21.7825 42.9502 21.9026C43.9275 22.3247 44.7554 22.5 45.671 22.5097C46.5801 22.5097 47.8301 22.2922 48.9892 21.6851C49.1385 21.6071 49.3041 21.5097 49.4437 21.4156L47.5704 18.5292V18.5422ZM24.1742 18.7727C21.8073 18.7727 20.0346 16.9123 20.0346 14.474C20.0346 12.0357 21.8073 10.1753 24.1742 10.1753C26.5411 10.1753 28.3431 12.0357 28.3431 14.474C28.3431 16.9123 26.5703 18.7727 24.1742 18.7727ZM40.6158 15.5844C39.6385 14.4286 38.658 10.711 38.658 8.4026C38.658 5.44481 39.2522 3.79871 40.6158 3.79871C41.9794 3.79871 42.5736 5.44481 42.5736 8.4026C42.5736 10.711 41.5833 14.4448 40.6158 15.5844Z" fill="#FF385C"/>
</svg>
