<svg width="112" height="100" viewBox="0 0 112 100" fill="none" xmlns="http://www.w3.org/2000/svg">
<path d="M106.63 39.7598C97.3097 24.8598 81.1898 20.2098 75.3997 15.3598C72.8398 13.2098 72.3897 10.7998 72.9497 8.09984C73.8097 3.97984 71.4398 1.96984 69.2097 0.939842C63.1397 -1.75016 51.9197 1.79984 43.5097 5.31984C38.1297 7.56984 33.8897 9.80984 32.8797 10.3898C29.8997 11.9698 27.1897 13.6298 24.7197 15.3398C1.4997 31.4398 -0.110264 52.2898 0.319736 58.6098C0.859736 70.1298 9.23971 99.3398 56.5397 99.3398C92.6997 99.3398 105.72 80.2698 109.19 70.9398C110.25 68.0798 111.77 63.2298 111.8 58.5898C111.84 52.4598 110.61 46.1098 106.63 39.7598Z" fill="#251E1B"/>
</svg>
