<svg width="112" height="100" viewBox="0 0 112 100" fill="none" xmlns="http://www.w3.org/2000/svg">
<path d="M106.501 39.7598C97.1808 24.8598 81.0608 20.2098 75.2708 15.3598C72.7108 13.2098 72.2608 10.7998 72.8208 8.09984C73.6808 3.97984 71.3108 1.96984 69.0808 0.939842C63.0108 -1.75016 51.7908 1.79984 43.3808 5.31984C38.0008 7.56984 33.7608 9.80984 32.7508 10.3898C29.7708 11.9698 27.0608 13.6298 24.5908 15.3398C1.37082 31.4398 -0.239171 52.2898 0.190829 58.6098C0.730829 70.1298 9.11083 99.3398 56.4108 99.3398C92.5708 99.3398 105.591 80.2698 109.061 70.9398C110.121 68.0798 111.641 63.2298 111.671 58.5898C111.711 52.4598 110.481 46.1098 106.501 39.7598Z" fill="url(#paint0_radial_890_1603)"/>
<defs>
<radialGradient id="paint0_radial_890_1603" cx="0" cy="0" r="1" gradientUnits="userSpaceOnUse" gradientTransform="translate(83.4114 39.1722) rotate(-8.45) scale(52.02 48.8988)">
<stop stop-color="#C28DFA" stop-opacity="0.49"/>
<stop offset="0.2" stop-color="#C28DFA" stop-opacity="0.57"/>
<stop offset="0.6" stop-color="#C28DFA" stop-opacity="0.78"/>
<stop offset="1" stop-color="#C28DFA"/>
</radialGradient>
</defs>
</svg>
