<svg width="112" height="100" viewBox="0 0 112 100" fill="none" xmlns="http://www.w3.org/2000/svg">
<path d="M106.358 39.7598C97.0381 24.8598 80.9181 20.2098 75.1281 15.3598C72.5681 13.2098 72.1181 10.7998 72.6781 8.09984C73.5381 3.97984 71.1681 1.96984 68.9381 0.939842C62.8681 -1.75016 51.6481 1.79984 43.2381 5.31984C37.8581 7.56984 33.6181 9.80984 32.6081 10.3898C29.6281 11.9698 26.9181 13.6298 24.4481 15.3398C1.23809 31.4398 -0.371912 52.2998 0.0480877 58.6098C0.588088 70.1298 8.96809 99.3398 56.2681 99.3398C92.4281 99.3398 105.448 80.2698 108.918 70.9398C109.978 68.0798 111.498 63.2298 111.528 58.5898C111.568 52.4598 110.338 46.1098 106.358 39.7598Z" fill="url(#paint0_radial_890_1605)"/>
<defs>
<radialGradient id="paint0_radial_890_1605" cx="0" cy="0" r="1" gradientUnits="userSpaceOnUse" gradientTransform="translate(83.2815 39.1497) rotate(-8.45) scale(52.02 48.8988)">
<stop stop-color="#FF9DAF"/>
<stop offset="0.24" stop-color="#FF899E"/>
<stop offset="0.74" stop-color="#FF5574"/>
<stop offset="1" stop-color="#FF385C"/>
</radialGradient>
</defs>
</svg>
