<svg width="380" height="380" viewBox="0 0 380 380" fill="none" xmlns="http://www.w3.org/2000/svg">
<g clip-path="url(#clip0_3071_2441)">
<rect y="126" width="380" height="129" fill="#FFF7EC"/>
<path d="M126.67 0H0V126.67H126.67V0Z" fill="#929292"/>
<path d="M253.342 0H126.672V126.67H253.342V0Z" fill="#B0B0B0"/>
<path d="M253.342 253.33H126.672V380H253.342V253.33Z" fill="#929292"/>
<mask id="mask0_3071_2441" style="mask-type:luminance" maskUnits="userSpaceOnUse" x="140" y="272" width="99" height="90">
<path d="M234.422 308.22C226.145 295.003 211.843 290.865 206.717 286.571C204.438 284.663 204.046 282.521 204.545 280.124C205.308 276.465 203.205 274.685 201.229 273.765C195.839 271.378 185.89 274.528 178.425 277.649C173.652 279.644 169.885 281.63 168.995 282.139C166.354 283.548 163.947 285.015 161.756 286.531C141.134 300.834 139.706 319.343 140.087 324.938C140.566 335.161 148.001 361.076 189.969 361.076C222.056 361.076 233.61 344.161 236.681 335.875C237.621 333.342 238.971 329.037 239 324.919C239.029 319.48 237.943 313.845 234.412 308.21L234.422 308.22Z" fill="white"/>
</mask>
<g mask="url(#mask0_3071_2441)">
<mask id="mask1_3071_2441" style="mask-type:luminance" maskUnits="userSpaceOnUse" x="135" y="268" width="109" height="98">
<path d="M243.903 268.041H135.148V365.976H243.903V268.041Z" fill="white"/>
</mask>
<g mask="url(#mask1_3071_2441)">
<rect x="135.148" y="268.012" width="108.94" height="98.14" fill="#D3D3D3"/>
</g>
</g>
<path d="M235.889 54.3503C227.429 40.8403 212.809 36.6103 207.569 32.2203C205.239 30.2703 204.839 28.0803 205.349 25.6303C206.129 21.8903 203.979 20.0703 201.959 19.1303C196.449 16.6903 186.279 19.9103 178.649 23.1003C173.769 25.1403 169.919 27.1703 169.009 27.6903C166.309 29.1303 163.849 30.6303 161.609 32.1803C140.549 46.7803 139.089 65.7003 139.469 71.4203C139.959 81.8703 147.559 108.36 190.459 108.36C223.259 108.36 235.069 91.0703 238.209 82.6003C239.169 80.0103 240.549 75.6103 240.579 71.4003C240.609 65.8403 239.499 60.0803 235.889 54.3203V54.3503Z" fill="#D3D3D3"/>
<path d="M193.588 71.6076C193.647 70.4106 192.273 69.3699 190.519 69.2832C188.765 69.1965 187.295 70.0966 187.236 71.2936C187.177 72.4906 188.551 73.5312 190.305 73.6179C192.059 73.7047 193.529 72.8046 193.588 71.6076Z" fill="#D3D3D3"/>
<path d="M173.866 71.0666C173.925 69.8696 172.551 68.8289 170.797 68.7422C169.043 68.6555 167.573 69.5556 167.513 70.7526C167.454 71.9496 168.828 72.9902 170.582 73.0769C172.336 73.1636 173.806 72.2636 173.866 71.0666Z" fill="#D3D3D3"/>
<path d="M379.998 253.33H253.328V380H379.998V253.33Z" fill="#B0B0B0"/>
<path d="M362.561 307.68C354.101 294.17 339.481 289.94 334.241 285.55C331.911 283.6 331.511 281.41 332.021 278.96C332.801 275.22 330.651 273.4 328.631 272.46C323.121 270.02 312.951 273.24 305.321 276.43C300.441 278.47 296.591 280.5 295.681 281.02C292.981 282.46 290.521 283.96 288.281 285.51C267.221 300.11 265.761 319.03 266.141 324.75C266.631 335.2 274.231 361.69 317.131 361.69C349.931 361.69 361.741 344.4 364.881 335.93C365.841 333.34 367.221 328.94 367.251 324.73C367.281 319.17 366.171 313.41 362.561 307.65V307.68Z" fill="#D3D3D3"/>
<path d="M126.67 253.33H0V380H126.67V253.33Z" fill="#B0B0B0"/>
<path d="M109.229 307.68C100.769 294.17 86.1487 289.94 80.9087 285.55C78.5787 283.6 78.1787 281.41 78.6887 278.96C79.4687 275.22 77.3187 273.4 75.2987 272.46C69.7887 270.02 59.6187 273.24 51.9887 276.43C47.1087 278.47 43.2587 280.5 42.3487 281.02C39.6487 282.46 37.1887 283.96 34.9487 285.51C13.8887 300.11 12.4287 319.03 12.8087 324.75C13.2987 335.2 20.8987 361.69 63.7987 361.69C96.5987 361.69 108.409 344.4 111.549 335.93C112.509 333.34 113.889 328.94 113.919 324.73C113.949 319.17 112.839 313.41 109.229 307.65V307.68Z" fill="#D3D3D3"/>
<path d="M109.229 54.3503C100.769 40.8403 86.1487 36.6103 80.9087 32.2203C78.5787 30.2703 78.1787 28.0803 78.6887 25.6303C79.4687 21.8903 77.3187 20.0703 75.2987 19.1303C69.7887 16.6903 59.6187 19.9103 51.9887 23.1003C47.1087 25.1403 43.2587 27.1703 42.3487 27.6903C39.6487 29.1303 37.1887 30.6303 34.9487 32.1803C13.8887 46.7803 12.4287 65.7003 12.8087 71.4203C13.2987 81.8703 20.8987 108.36 63.7987 108.36C96.5987 108.36 108.409 91.0703 111.549 82.6003C112.509 80.0103 113.889 75.6103 113.919 71.4003C113.949 65.8403 112.839 60.0803 109.229 54.3203V54.3503Z" fill="#D3D3D3"/>
<path d="M40.1889 209.6H39.3789V210.41H40.1889V209.6Z" fill="#FFD7DE"/>
<path d="M258.559 164.3H269.929L282.759 195.47L295.649 164.3H306.889V209.48H298.129V179.69L285.749 209.48H279.719L267.339 179.69V209.48H258.579V164.3H258.559Z" fill="#FF748D"/>
<path d="M310.069 192.78C310.069 182.83 317.559 175.3 327.469 175.3C337.379 175.3 344.869 182.83 344.869 192.85C344.869 193.7 344.809 194.95 344.619 195.73H318.899C319.979 200.05 323.279 202.87 327.729 202.87C331.099 202.87 334.019 201.3 335.409 199.14H344.359C341.879 205.75 335.469 210.27 327.589 210.27C317.559 210.27 310.059 202.74 310.059 192.79L310.069 192.78ZM318.959 189.51H335.979C334.959 185.45 331.659 182.7 327.469 182.7C323.279 182.7 320.099 185.38 318.959 189.51Z" fill="#FF748D"/>
<path d="M38.8984 164.3H58.8384C67.3484 164.3 73.8884 170.78 73.8884 179.36C73.8884 187.94 67.3484 194.42 58.8384 194.42H47.6584V209.48H38.8984V164.3ZM47.6584 172.81V185.91H58.6484C62.2084 185.91 64.8684 183.09 64.8684 179.36C64.8684 175.63 62.1984 172.81 58.6484 172.81H47.6584Z" fill="#FF385C"/>
<path d="M142.108 192.78C142.108 182.83 149.598 175.3 159.508 175.3C169.418 175.3 176.908 182.83 176.908 192.85C176.908 193.7 176.848 194.95 176.658 195.73H150.938C152.018 200.05 155.318 202.87 159.768 202.87C163.138 202.87 166.058 201.3 167.448 199.14H176.398C173.918 205.75 167.508 210.27 159.628 210.27C149.598 210.27 142.098 202.74 142.098 192.79L142.108 192.78ZM150.998 189.51H168.018C166.998 185.45 163.698 182.7 159.508 182.7C155.318 182.7 152.138 185.38 150.998 189.51Z" fill="#FF385C"/>
<path d="M215.869 192.78C215.869 182.83 223.359 175.3 233.269 175.3C243.179 175.3 250.669 182.83 250.669 192.85C250.669 193.7 250.609 194.95 250.419 195.73H224.699C225.779 200.05 229.079 202.87 233.529 202.87C236.899 202.87 239.819 201.3 241.209 199.14H250.159C247.679 205.75 241.269 210.27 233.389 210.27C223.359 210.27 215.859 202.74 215.859 192.79L215.869 192.78ZM224.759 189.51H241.779C240.759 185.45 237.459 182.7 233.269 182.7C229.079 182.7 225.899 185.38 224.759 189.51Z" fill="#FF385C"/>
<path d="M181.089 198.94V181.63H175.949V173.84H178.869C180.579 173.84 181.539 172.92 181.539 171.16V167.19H189.349V173.84H196.839V181.63H189.349V197.5C189.349 200.12 190.939 201.69 193.599 201.69C193.599 201.69 195.579 201.63 196.839 201.06V208.85C195.279 209.39 192.389 209.48 192.389 209.48C184.959 209.48 181.089 205.81 181.089 198.94Z" fill="#FF385C"/>
<path d="M200.038 198.94V181.63H194.898V173.84H197.818C199.528 173.84 200.488 172.92 200.488 171.16V167.19H208.298V173.84H215.788V181.63H208.298V197.5C208.298 200.12 209.888 201.69 212.548 201.69C212.548 201.69 214.528 201.63 215.788 201.06V208.85C214.228 209.39 211.338 209.48 211.338 209.48C203.908 209.48 200.038 205.81 200.038 198.94Z" fill="#FF385C"/>
<path d="M144.339 196.88C144.419 196.51 144.449 196.18 144.449 196.18C144.619 195.96 149.649 202.97 149.649 202.97C149.539 203.19 149.129 203.79 148.919 204.07C148.469 204.69 148.029 205.19 147.559 205.66C150.649 208.53 154.849 210.26 159.629 210.26C167.509 210.26 173.919 205.74 176.399 199.13H167.449C166.049 201.29 163.129 202.86 159.769 202.86C155.329 202.86 152.019 200.04 150.939 195.72H176.659C176.849 194.93 176.909 193.69 176.909 192.84C176.909 182.82 169.419 175.29 159.509 175.29C149.599 175.29 142.109 182.82 142.109 192.77C142.109 195.09 142.529 197.27 143.279 199.26C143.459 198.98 143.619 198.71 143.719 198.5C144.079 197.78 144.269 197.18 144.339 196.87V196.88ZM159.499 182.7C163.689 182.7 166.989 185.45 168.009 189.51H150.989C152.129 185.38 155.309 182.7 159.499 182.7Z" fill="#FF385C"/>
<path d="M141.06 201.52C140.65 201.79 140.04 202.14 139.3 202.36C138.89 202.48 138.5 202.55 138.43 202.56C138.15 202.61 137.65 202.68 137.04 202.67C135.59 202.64 134.5 202.18 134.23 202.06C134.23 202.06 133.5 201.74 132.83 201.24C132.51 201 132.21 200.7 132.11 200.58C132.08 200.54 131.81 200.26 131.77 200.18L131.74 200.21L131.78 200.18C131.85 200.08 131.98 199.89 132.13 199.67C132.37 199.34 132.6 199.01 132.82 198.66C136.01 193.63 138.85 187.08 138.85 179.75C138.85 168.09 133.7 161.71 126.13 161.71C118.56 161.71 113.41 168.09 113.41 179.75C113.41 187.34 116.44 194.09 119.77 199.18C119.78 199.2 120.39 200.02 120.53 200.23L120.62 200.36C120.52 200.47 120.45 200.54 120.4 200.6C120.29 200.72 119.97 201.01 119.65 201.25C118.98 201.75 118.25 202.07 118.25 202.07C117.98 202.19 116.89 202.65 115.44 202.68C114.83 202.69 114.32 202.62 114.05 202.57C113.98 202.56 113.58 202.49 113.18 202.37C112.27 202.1 111.54 201.63 111.15 201.35C111.11 201.32 111.03 201.26 110.93 201.18C110.31 200.69 109.79 200.07 109.39 199.39C108.97 198.68 108.71 197.92 108.5 197.12C108.14 195.72 108.09 194.29 108.02 192.85C108.02 191.79 108.02 177.18 108.02 176.1H99.7602V180.03C97.1602 177.08 93.5402 175.32 89.2202 175.32C80.2002 175.32 73.4102 182.85 73.4102 192.8C73.4102 202.75 80.2102 210.28 89.2202 210.28C97.2002 210.12 101.32 205.17 102.66 203C102.77 203.26 103.2 203.9 103.4 204.18C104.7 205.95 106.36 207.37 108.31 208.39C110.4 209.48 112.84 210.03 115.2 210.08C115.3 210.08 115.4 210.08 115.49 210.08C117.45 210.06 119.23 209.68 121.33 208.78C121.92 208.52 122.46 208.22 122.96 207.92C124.17 207.2 125.22 206.24 126.22 205.17C127.22 206.25 128.28 207.21 129.48 207.92C129.99 208.22 130.52 208.52 131.11 208.78C133.21 209.69 134.99 210.06 136.95 210.08C138.9 210.08 141.59 209.62 144.08 208.31C144.4 208.14 144.75 207.93 145.05 207.73L141.03 201.54L141.06 201.52ZM90.8102 202.01C85.7302 202.01 81.9202 198.02 81.9202 192.78C81.9202 187.54 85.7302 183.55 90.8102 183.55C95.8902 183.55 99.7602 187.54 99.7602 192.78C99.7602 198.02 95.9501 202.01 90.8102 202.01ZM126.12 195.16C124.02 192.68 121.91 184.69 121.91 179.73C121.91 173.38 123.19 169.84 126.12 169.84C129.05 169.84 130.33 173.38 130.33 179.73C130.33 184.69 128.2 192.71 126.12 195.16Z" fill="#FF385C"/>
<path d="M379.67 0H253V126.67H379.67V0Z" fill="#74C3FF"/>
<path d="M354.4 59.4005C361.398 59.4005 367.07 53.728 367.07 46.7305C367.07 39.7331 361.398 34.0605 354.4 34.0605C347.403 34.0605 341.73 39.7331 341.73 46.7305C341.73 53.728 347.403 59.4005 354.4 59.4005Z" fill="#FF385C" stroke="#FF385C" stroke-width="3.97" stroke-linecap="round" stroke-linejoin="round"/>
<path d="M342.539 29.3902C333.659 20.1902 321.399 15.8902 308.759 15.9102C302.699 15.9202 296.399 16.7002 290.629 18.6502C305.219 14.7402 324.619 29.4202 335.289 53.1102C345.899 76.6702 344.109 100.79 331.699 109.25C332.829 108.47 333.939 107.64 335.009 106.77C345.659 98.2002 353.799 85.8802 356.249 72.3302C359.059 56.8402 353.379 40.6202 342.529 29.3902H342.539Z" fill="#FF385C" stroke="#FF385C" stroke-width="3.97" stroke-linecap="round" stroke-linejoin="round"/>
<path d="M326.723 105.167C338.945 99.6639 340.772 77.2564 330.805 55.1185C320.837 32.9806 302.848 19.4955 290.626 24.9986C278.404 30.5017 276.577 52.9092 286.544 75.0471C296.512 97.185 314.501 110.67 326.723 105.167Z" stroke="#221815" stroke-width="3.38" stroke-miterlimit="10"/>
<path d="M329.118 111.009C343.924 104.342 346.68 78.4036 335.275 53.073C323.869 27.7423 302.621 12.6119 287.816 19.2782C273.01 25.9445 270.254 51.8832 281.659 77.2139C293.064 102.545 314.312 117.675 329.118 111.009Z" fill="#302927"/>
<path d="M329.118 111.009C343.924 104.342 346.68 78.4036 335.275 53.073C323.869 27.7423 302.621 12.6119 287.816 19.2782C273.01 25.9445 270.254 51.8832 281.659 77.2139C293.064 102.545 314.312 117.675 329.118 111.009Z" stroke="#302927" stroke-width="3.39" stroke-miterlimit="10"/>
<path d="M309.131 105.88C330.488 105.88 347.801 88.5669 347.801 67.21C347.801 45.8532 330.488 28.54 309.131 28.54C287.774 28.54 270.461 45.8532 270.461 67.21C270.461 88.5669 287.774 105.88 309.131 105.88Z" fill="#FFFF84" stroke="#FFFF84" stroke-width="2" stroke-miterlimit="10"/>
<path d="M306.731 79.7954C308.59 78.9476 308.071 73.816 305.572 68.3335C303.072 62.8511 299.538 59.0939 297.679 59.9416C295.82 60.7893 296.339 65.921 298.839 71.4034C301.338 76.8859 304.872 80.6431 306.731 79.7954Z" fill="#302927" stroke="#302927" stroke-width="4.07" stroke-miterlimit="10"/>
<path d="M290.801 86.0102C292.661 85.1625 292.142 80.0309 289.642 74.5484C287.142 69.0659 283.609 65.3087 281.749 66.1565C279.89 67.0042 280.409 72.1358 282.909 77.6183C285.409 83.1008 288.942 86.858 290.801 86.0102Z" fill="#302927" stroke="#302927" stroke-width="4.07" stroke-miterlimit="10"/>
<path d="M308.718 71.398C310.149 70.8418 311.001 69.598 310.621 68.62C310.24 67.6419 308.772 67.2999 307.341 67.8562C305.91 68.4124 305.058 69.6562 305.438 70.6342C305.818 71.6123 307.287 71.9542 308.718 71.398Z" fill="#FFFF84"/>
<path d="M292.784 78.0045C294.215 77.4483 295.067 76.2045 294.687 75.2264C294.307 74.2483 292.839 73.9064 291.408 74.4626C289.977 75.0188 289.125 76.2626 289.505 77.2407C289.885 78.2187 291.353 78.5607 292.784 78.0045Z" fill="#FFFF84"/>
<path d="M307.972 14.5704C321.021 14.5505 333.652 18.9916 342.782 28.4575L342.929 28.6104H342.939C354.033 40.2108 359.815 56.8558 356.94 72.7413C354.619 85.5293 347.384 97.2657 337.742 105.961C340.906 101.263 342.742 95.0388 343.215 87.9738C343.922 77.4354 341.606 64.9437 336.058 52.6152L336.057 52.6151C330.474 40.2113 322.598 30.1512 314.186 23.6974C307.96 18.9215 301.403 16.0945 295.248 15.8012C299.433 14.948 303.755 14.5771 307.972 14.5704ZM307.972 14.5704L307.972 14.0704M307.972 14.5704L307.972 14.0704M307.972 14.0704C321.132 14.0504 333.902 18.5304 343.142 28.1104L292.927 15.813C297.831 14.5931 302.98 14.0783 307.972 14.0704Z" fill="#FF385C" stroke="#FF385C"/>
</g>
<defs>
<clipPath id="clip0_3071_2441">
<rect width="380" height="380" rx="8" fill="white"/>
</clipPath>
</defs>
</svg>
