<svg width="380" height="380" viewBox="0 0 380 380" fill="none" xmlns="http://www.w3.org/2000/svg">
<g clip-path="url(#clip0_3075_1688)">
<rect y="126" width="380" height="129" fill="#FFF7EC"/>
<path d="M126.67 0H0V126.67H126.67V0Z" fill="#F85C3B"/>
<path d="M253.342 0H126.672V126.67H253.342V0Z" fill="#F1CFFD"/>
<path d="M40.1909 209.6H39.3809V210.41H40.1909V209.6Z" fill="#FFD7DE"/>
<path d="M258.561 164.3H269.931L282.761 195.47L295.651 164.3H306.891V209.48H298.131V179.69L285.751 209.48H279.721L267.341 179.69V209.48H258.581V164.3H258.561Z" fill="#FF748D"/>
<path d="M310.071 192.78C310.071 182.83 317.561 175.3 327.471 175.3C337.381 175.3 344.871 182.83 344.871 192.85C344.871 193.7 344.811 194.95 344.621 195.73H318.901C319.981 200.05 323.281 202.87 327.731 202.87C331.101 202.87 334.021 201.3 335.411 199.14H344.361C341.881 205.75 335.471 210.27 327.591 210.27C317.561 210.27 310.061 202.74 310.061 192.79L310.071 192.78ZM318.961 189.51H335.981C334.961 185.45 331.661 182.7 327.471 182.7C323.281 182.7 320.101 185.38 318.961 189.51Z" fill="#FF748D"/>
<path d="M38.9004 164.3H58.8404C67.3504 164.3 73.8904 170.78 73.8904 179.36C73.8904 187.94 67.3504 194.42 58.8404 194.42H47.6604V209.48H38.9004V164.3ZM47.6604 172.81V185.91H58.6504C62.2104 185.91 64.8704 183.09 64.8704 179.36C64.8704 175.63 62.2004 172.81 58.6504 172.81H47.6604Z" fill="#FF385C"/>
<path d="M142.11 192.78C142.11 182.83 149.6 175.3 159.51 175.3C169.42 175.3 176.91 182.83 176.91 192.85C176.91 193.7 176.85 194.95 176.66 195.73H150.94C152.02 200.05 155.32 202.87 159.77 202.87C163.14 202.87 166.06 201.3 167.45 199.14H176.4C173.92 205.75 167.51 210.27 159.63 210.27C149.6 210.27 142.1 202.74 142.1 192.79L142.11 192.78ZM151 189.51H168.02C167 185.45 163.7 182.7 159.51 182.7C155.32 182.7 152.14 185.38 151 189.51Z" fill="#FF385C"/>
<path d="M215.871 192.78C215.871 182.83 223.361 175.3 233.271 175.3C243.181 175.3 250.671 182.83 250.671 192.85C250.671 193.7 250.611 194.95 250.421 195.73H224.701C225.781 200.05 229.081 202.87 233.531 202.87C236.901 202.87 239.821 201.3 241.211 199.14H250.161C247.681 205.75 241.271 210.27 233.391 210.27C223.361 210.27 215.861 202.74 215.861 192.79L215.871 192.78ZM224.761 189.51H241.781C240.761 185.45 237.461 182.7 233.271 182.7C229.081 182.7 225.901 185.38 224.761 189.51Z" fill="#FF385C"/>
<path d="M181.091 198.94V181.63H175.951V173.84H178.871C180.581 173.84 181.541 172.92 181.541 171.16V167.19H189.351V173.84H196.841V181.63H189.351V197.5C189.351 200.12 190.941 201.69 193.601 201.69C193.601 201.69 195.581 201.63 196.841 201.06V208.85C195.281 209.39 192.391 209.48 192.391 209.48C184.961 209.48 181.091 205.81 181.091 198.94Z" fill="#FF385C"/>
<path d="M200.04 198.94V181.63H194.9V173.84H197.82C199.53 173.84 200.49 172.92 200.49 171.16V167.19H208.3V173.84H215.79V181.63H208.3V197.5C208.3 200.12 209.89 201.69 212.55 201.69C212.55 201.69 214.53 201.63 215.79 201.06V208.85C214.23 209.39 211.34 209.48 211.34 209.48C203.91 209.48 200.04 205.81 200.04 198.94Z" fill="#FF385C"/>
<path d="M144.341 196.88C144.421 196.51 144.451 196.18 144.451 196.18C144.621 195.96 149.651 202.97 149.651 202.97C149.541 203.19 149.131 203.79 148.921 204.07C148.471 204.69 148.031 205.19 147.561 205.66C150.651 208.53 154.851 210.26 159.631 210.26C167.511 210.26 173.921 205.74 176.401 199.13H167.451C166.051 201.29 163.131 202.86 159.771 202.86C155.331 202.86 152.021 200.04 150.941 195.72H176.661C176.851 194.93 176.911 193.69 176.911 192.84C176.911 182.82 169.421 175.29 159.511 175.29C149.601 175.29 142.111 182.82 142.111 192.77C142.111 195.09 142.531 197.27 143.281 199.26C143.461 198.98 143.621 198.71 143.721 198.5C144.081 197.78 144.271 197.18 144.341 196.87V196.88ZM159.501 182.7C163.691 182.7 166.991 185.45 168.011 189.51H150.991C152.131 185.38 155.311 182.7 159.501 182.7Z" fill="#FF385C"/>
<path d="M141.06 201.52C140.65 201.79 140.04 202.14 139.3 202.36C138.89 202.48 138.5 202.55 138.43 202.56C138.15 202.61 137.65 202.68 137.04 202.67C135.59 202.64 134.5 202.18 134.23 202.06C134.23 202.06 133.5 201.74 132.83 201.24C132.51 201 132.21 200.7 132.11 200.58C132.08 200.54 131.81 200.26 131.77 200.18L131.74 200.21L131.78 200.18C131.85 200.08 131.98 199.89 132.13 199.67C132.37 199.34 132.6 199.01 132.82 198.66C136.01 193.63 138.85 187.08 138.85 179.75C138.85 168.09 133.7 161.71 126.13 161.71C118.56 161.71 113.41 168.09 113.41 179.75C113.41 187.34 116.44 194.09 119.77 199.18C119.78 199.2 120.39 200.02 120.53 200.23L120.62 200.36C120.52 200.47 120.45 200.54 120.4 200.6C120.29 200.72 119.97 201.01 119.65 201.25C118.98 201.75 118.25 202.07 118.25 202.07C117.98 202.19 116.89 202.65 115.44 202.68C114.83 202.69 114.32 202.62 114.05 202.57C113.98 202.56 113.58 202.49 113.18 202.37C112.27 202.1 111.54 201.63 111.15 201.35C111.11 201.32 111.03 201.26 110.93 201.18C110.31 200.69 109.79 200.07 109.39 199.39C108.97 198.68 108.71 197.92 108.5 197.12C108.14 195.72 108.09 194.29 108.02 192.85C108.02 191.79 108.02 177.18 108.02 176.1H99.7602V180.03C97.1602 177.08 93.5402 175.32 89.2202 175.32C80.2002 175.32 73.4102 182.85 73.4102 192.8C73.4102 202.75 80.2102 210.28 89.2202 210.28C97.2002 210.12 101.32 205.17 102.66 203C102.77 203.26 103.2 203.9 103.4 204.18C104.7 205.95 106.36 207.37 108.31 208.39C110.4 209.48 112.84 210.03 115.2 210.08C115.3 210.08 115.4 210.08 115.49 210.08C117.45 210.06 119.23 209.68 121.33 208.78C121.92 208.52 122.46 208.22 122.96 207.92C124.17 207.2 125.22 206.24 126.22 205.17C127.22 206.25 128.28 207.21 129.48 207.92C129.99 208.22 130.52 208.52 131.11 208.78C133.21 209.69 134.99 210.06 136.95 210.08C138.9 210.08 141.59 209.62 144.08 208.31C144.4 208.14 144.75 207.93 145.05 207.73L141.03 201.54L141.06 201.52ZM90.8102 202.01C85.7302 202.01 81.9202 198.02 81.9202 192.78C81.9202 187.54 85.7302 183.55 90.8102 183.55C95.8902 183.55 99.7602 187.54 99.7602 192.78C99.7602 198.02 95.9502 202.01 90.8102 202.01ZM126.12 195.16C124.02 192.68 121.91 184.69 121.91 179.73C121.91 173.38 123.19 169.84 126.12 169.84C129.05 169.84 130.33 173.38 130.33 179.73C130.33 184.69 128.2 192.71 126.12 195.16Z" fill="#FF385C"/>
<path d="M235.891 54.3503C227.431 40.8403 212.811 36.6103 207.571 32.2203C205.241 30.2703 204.841 28.0803 205.351 25.6303C206.131 21.8903 203.981 20.0703 201.961 19.1303C196.451 16.6903 186.281 19.9103 178.651 23.1003C173.771 25.1403 169.921 27.1703 169.011 27.6903C166.311 29.1303 163.851 30.6303 161.611 32.1803C140.551 46.7803 139.091 65.7003 139.471 71.4203C139.961 81.8703 147.561 108.36 190.461 108.36C223.261 108.36 235.071 91.0703 238.211 82.6003C239.171 80.0103 240.551 75.6103 240.581 71.4003C240.611 65.8403 239.501 60.0803 235.891 54.3203V54.3503Z" fill="#FF385C"/>
<path d="M184.308 81.4852C186.644 81.4676 188.496 75.8661 188.444 68.9738C188.392 62.0815 186.457 56.5083 184.121 56.5259C181.784 56.5434 179.933 62.1449 179.984 69.0373C180.036 75.9296 181.972 81.5027 184.308 81.4852Z" fill="#251E1B" stroke="#251E1B" stroke-width="4.65" stroke-miterlimit="10"/>
<path d="M164.8 80.5516C167.136 80.534 168.988 74.9325 168.936 68.0402C168.885 61.1479 166.949 55.5747 164.613 55.5923C162.277 55.6098 160.425 61.2113 160.476 68.1037C160.528 74.996 162.464 80.5691 164.8 80.5516Z" fill="#251E1B" stroke="#251E1B" stroke-width="4.65" stroke-miterlimit="10"/>
<path d="M193.592 71.6076C193.651 70.4106 192.277 69.3699 190.523 69.2832C188.769 69.1965 187.299 70.0966 187.24 71.2936C187.181 72.4906 188.555 73.5312 190.309 73.6179C192.063 73.7047 193.533 72.8046 193.592 71.6076Z" fill="#FF385C"/>
<path d="M173.868 71.0666C173.927 69.8696 172.553 68.8289 170.799 68.7422C169.044 68.6555 167.575 69.5556 167.515 70.7526C167.456 71.9496 168.83 72.9902 170.584 73.0769C172.338 73.1636 173.808 72.2636 173.868 71.0666Z" fill="#FF385C"/>
<path d="M126.67 253.33H0V380H126.67V253.33Z" fill="#E0F1B3"/>
<path d="M109.231 307.68C100.771 294.17 86.1506 289.94 80.9106 285.55C78.5806 283.6 78.1806 281.41 78.6906 278.96C79.4706 275.22 77.3206 273.4 75.3006 272.46C69.7906 270.02 59.6206 273.24 51.9906 276.43C47.1106 278.47 43.2606 280.5 42.3506 281.02C39.6506 282.46 37.1906 283.96 34.9506 285.51C13.8906 300.11 12.4306 319.03 12.8106 324.75C13.3006 335.2 20.9006 361.69 63.8006 361.69C96.6006 361.69 108.411 344.4 111.551 335.93C112.511 333.34 113.891 328.94 113.921 324.73C113.951 319.17 112.841 313.41 109.231 307.65V307.68Z" fill="#C28DFA"/>
<path d="M95.3645 333.866C97.7006 333.848 99.5524 328.247 99.5007 321.355C99.449 314.462 97.5132 308.889 95.1771 308.907C92.8411 308.924 90.9892 314.526 91.0409 321.418C91.0927 328.31 93.0284 333.884 95.3645 333.866Z" fill="#251E1B" stroke="#251E1B" stroke-width="4.65" stroke-miterlimit="10"/>
<path d="M104.674 323.97C104.733 322.773 103.359 321.732 101.605 321.646C99.8511 321.559 98.3812 322.459 98.322 323.656C98.2628 324.853 99.6368 325.894 101.391 325.98C103.145 326.067 104.615 325.167 104.674 323.97Z" fill="#C28DFA"/>
<path d="M75.8449 333.862C78.181 333.845 80.0329 328.243 79.9812 321.351C79.9294 314.458 77.9937 308.885 75.6576 308.903C73.3215 308.92 71.4697 314.522 71.5214 321.414C71.5731 328.307 73.5088 333.88 75.8449 333.862Z" fill="#251E1B" stroke="#251E1B" stroke-width="4.65" stroke-miterlimit="10"/>
<path d="M84.9594 324.365C85.0186 323.168 83.6445 322.128 81.8904 322.041C80.1363 321.954 78.6663 322.854 78.6071 324.051C78.548 325.248 79.922 326.289 81.6761 326.376C83.4303 326.462 84.9002 325.562 84.9594 324.365Z" fill="#C28DFA"/>
<path d="M109.231 54.3503C100.771 40.8403 86.1506 36.6103 80.9106 32.2203C78.5806 30.2703 78.1806 28.0803 78.6906 25.6303C79.4706 21.8903 77.3206 20.0703 75.3006 19.1303C69.7906 16.6903 59.6206 19.9103 51.9906 23.1003C47.1106 25.1403 43.2606 27.1703 42.3506 27.6903C39.6506 29.1303 37.1906 30.6303 34.9506 32.1803C13.8906 46.7803 12.4306 65.7003 12.8106 71.4203C13.3006 81.8703 20.9006 108.36 63.8006 108.36C96.6006 108.36 108.411 91.0703 111.551 82.6003C112.511 80.0103 113.891 75.6103 113.921 71.4003C113.951 65.8403 112.841 60.0803 109.231 54.3203V54.3503Z" fill="#9BECE3"/>
<path d="M88.442 77.8728C88.8952 70.9952 87.3728 65.2953 85.0417 65.1417C82.7106 64.9881 80.4535 70.4389 80.0003 77.3165C79.5471 84.1941 81.0694 89.8941 83.4005 90.0477C85.7316 90.2013 87.9888 84.7504 88.442 77.8728Z" fill="#251E1B" stroke="#251E1B" stroke-width="4.65" stroke-miterlimit="10"/>
<path d="M68.8189 78.6404C69.2721 71.7628 67.7498 66.0629 65.4186 65.9092C63.0875 65.7556 60.8304 71.2065 60.3772 78.0841C59.924 84.9617 61.4464 90.6616 63.7775 90.8152C66.1086 90.9688 68.3657 85.518 68.8189 78.6404Z" fill="#251E1B" stroke="#251E1B" stroke-width="4.65" stroke-miterlimit="10"/>
<path d="M93.4003 80.8993C93.5472 79.7099 92.2532 78.5712 90.5102 78.3559C88.7672 78.1406 87.2351 78.9304 87.0882 80.1198C86.9413 81.3092 88.2353 82.4479 89.9783 82.6632C91.7213 82.8784 93.2534 82.0887 93.4003 80.8993Z" fill="#9BECE3"/>
<path d="M73.537 82.0282C73.6839 80.8388 72.39 79.7001 70.6469 79.4848C68.9039 79.2696 67.3718 80.0593 67.2249 81.2487C67.0781 82.4381 68.372 83.5768 70.115 83.7921C71.858 84.0073 73.3901 83.2176 73.537 82.0282Z" fill="#9BECE3"/>
<path d="M379.67 0H253V126.67H379.67V0Z" fill="#74C3FF"/>
<path d="M354.4 59.4005C361.398 59.4005 367.07 53.728 367.07 46.7305C367.07 39.7331 361.398 34.0605 354.4 34.0605C347.403 34.0605 341.73 39.7331 341.73 46.7305C341.73 53.728 347.403 59.4005 354.4 59.4005Z" fill="#FF385C" stroke="#FF385C" stroke-width="3.97" stroke-linecap="round" stroke-linejoin="round"/>
<path d="M342.541 29.3902C333.661 20.1902 321.401 15.8902 308.761 15.9102C302.701 15.9202 296.401 16.7002 290.631 18.6502C305.221 14.7402 324.621 29.4202 335.291 53.1102C345.901 76.6702 344.111 100.79 331.701 109.25C332.831 108.47 333.941 107.64 335.011 106.77C345.661 98.2002 353.801 85.8802 356.251 72.3302C359.061 56.8402 353.381 40.6202 342.531 29.3902H342.541Z" fill="#FF385C" stroke="#FF385C" stroke-width="3.97" stroke-linecap="round" stroke-linejoin="round"/>
<path d="M326.723 105.167C338.945 99.6639 340.772 77.2564 330.805 55.1185C320.837 32.9806 302.848 19.4955 290.626 24.9986C278.404 30.5017 276.577 52.9092 286.544 75.0471C296.512 97.185 314.501 110.67 326.723 105.167Z" stroke="#221815" stroke-width="3.38" stroke-miterlimit="10"/>
<path d="M329.118 111.009C343.924 104.342 346.68 78.4036 335.275 53.073C323.869 27.7423 302.621 12.6119 287.816 19.2782C273.01 25.9445 270.254 51.8832 281.659 77.2139C293.064 102.545 314.312 117.675 329.118 111.009Z" fill="#302927"/>
<path d="M329.118 111.009C343.924 104.342 346.68 78.4036 335.275 53.073C323.869 27.7423 302.621 12.6119 287.816 19.2782C273.01 25.9445 270.254 51.8832 281.659 77.2139C293.064 102.545 314.312 117.675 329.118 111.009Z" stroke="#302927" stroke-width="3.39" stroke-miterlimit="10"/>
<path d="M309.131 105.88C330.488 105.88 347.801 88.5669 347.801 67.21C347.801 45.8532 330.488 28.54 309.131 28.54C287.774 28.54 270.461 45.8532 270.461 67.21C270.461 88.5669 287.774 105.88 309.131 105.88Z" fill="#FFFF84" stroke="#FFFF84" stroke-width="2" stroke-miterlimit="10"/>
<path d="M306.731 79.7954C308.59 78.9476 308.071 73.816 305.572 68.3335C303.072 62.8511 299.538 59.0939 297.679 59.9416C295.82 60.7893 296.339 65.921 298.839 71.4034C301.338 76.8859 304.872 80.6431 306.731 79.7954Z" fill="#302927" stroke="#302927" stroke-width="4.07" stroke-miterlimit="10"/>
<path d="M290.801 86.0102C292.661 85.1625 292.142 80.0309 289.642 74.5484C287.142 69.0659 283.609 65.3087 281.749 66.1565C279.89 67.0042 280.409 72.1358 282.909 77.6183C285.409 83.1008 288.942 86.858 290.801 86.0102Z" fill="#302927" stroke="#302927" stroke-width="4.07" stroke-miterlimit="10"/>
<path d="M308.72 71.398C310.151 70.8418 311.003 69.598 310.623 68.62C310.242 67.6419 308.774 67.2999 307.343 67.8562C305.912 68.4124 305.06 69.6562 305.44 70.6342C305.82 71.6123 307.289 71.9542 308.72 71.398Z" fill="#FFFF84"/>
<path d="M292.782 78.0045C294.213 77.4483 295.065 76.2045 294.685 75.2264C294.305 74.2483 292.837 73.9064 291.406 74.4626C289.975 75.0188 289.123 76.2626 289.503 77.2407C289.883 78.2187 291.351 78.5607 292.782 78.0045Z" fill="#FFFF84"/>
<path d="M307.972 14.5704C321.021 14.5505 333.652 18.9916 342.782 28.4575L342.929 28.6104H342.939C354.033 40.2108 359.815 56.8558 356.94 72.7413C354.619 85.5293 347.384 97.2657 337.742 105.961C340.906 101.263 342.742 95.0388 343.215 87.9738C343.922 77.4354 341.606 64.9437 336.058 52.6152L336.057 52.6151C330.474 40.2113 322.598 30.1512 314.186 23.6974C307.96 18.9215 301.403 16.0945 295.248 15.8012C299.433 14.948 303.755 14.5771 307.972 14.5704ZM307.972 14.5704L307.972 14.0704M307.972 14.5704L307.972 14.0704M307.972 14.0704C321.132 14.0504 333.902 18.5304 343.142 28.1104L292.927 15.813C297.831 14.5931 302.98 14.0783 307.972 14.0704Z" fill="#FF385C" stroke="#FF385C"/>
<path d="M253.67 253H127V379.67H253.67V253Z" fill="#929292"/>
<mask id="mask0_3075_1688" style="mask-type:luminance" maskUnits="userSpaceOnUse" x="140" y="272" width="100" height="89">
<path d="M234.75 307.89C226.474 294.673 212.171 290.535 207.045 286.24C204.766 284.333 204.374 282.19 204.873 279.794C205.636 276.135 203.533 274.354 201.557 273.435C196.167 271.048 186.218 274.198 178.754 277.319C173.98 279.314 170.213 281.3 169.323 281.809C166.682 283.218 164.275 284.685 162.084 286.201C141.462 300.504 140.034 319.013 140.415 324.608C140.895 334.831 148.329 360.745 190.297 360.745C222.384 360.745 233.938 343.831 237.01 335.545C237.949 333.012 239.299 328.707 239.328 324.589C239.357 319.149 238.271 313.515 234.74 307.88L234.75 307.89Z" fill="white"/>
</mask>
<g mask="url(#mask0_3075_1688)">
<mask id="mask1_3075_1688" style="mask-type:luminance" maskUnits="userSpaceOnUse" x="135" y="267" width="110" height="99">
<path d="M244.231 267.711H135.477V365.646H244.231V267.711Z" fill="white"/>
</mask>
<g mask="url(#mask1_3075_1688)">
<rect x="135.477" y="267.682" width="108.94" height="98.14" fill="#D3D3D3"/>
</g>
</g>
<path d="M380.326 253H253.656V379.67H380.326V253Z" fill="#B0B0B0"/>
<path d="M362.889 307.35C354.429 293.84 339.809 289.61 334.569 285.22C332.239 283.27 331.839 281.08 332.349 278.63C333.129 274.89 330.979 273.07 328.959 272.13C323.449 269.69 313.279 272.91 305.649 276.1C300.769 278.14 296.919 280.17 296.009 280.69C293.309 282.13 290.849 283.63 288.609 285.18C267.549 299.78 266.089 318.7 266.469 324.42C266.959 334.87 274.559 361.36 317.459 361.36C350.259 361.36 362.069 344.07 365.209 335.6C366.169 333.01 367.549 328.61 367.579 324.4C367.609 318.84 366.499 313.08 362.889 307.32V307.35Z" fill="#D3D3D3"/>
</g>
<defs>
<clipPath id="clip0_3075_1688">
<rect width="380" height="380" rx="8" fill="white"/>
</clipPath>
</defs>
</svg>
